:SAMPLES-PER-SECOND 30
:FULLY-SPECIFIED
:DEGREES
553
root  88.5094 39.151 0.591892 -108.108 -87.7746 110.146
RightUpLeg  -1.30771 -9.72408 -6.33233
RightLeg  4.30694 8.60843 1.35319
RightFoot  -8.87 -0.16757 4.97942
RightToes  -9.31324e-010 0 -3.6325e-017
Spine  6.2737 3.22052 9.71809
Spine1  5.12567 5.32468 -7.11327
HEad  -0.815183 -33.4484 -9.48437
LeftShoulder1  -0.137393 3.85391 -33.1187
LeftArm  4.22012 13.9498 -42.335
LeftForeArm  25.7496 -21.2333 -4.00327
LeftHand  -0.0772184 6.8873 -2.6989
RightShoulder  -0.849726 -5.82546 29.9797
RightArm  8.38051 0.450167 43.1535
RightForeArm  9.40149 10.4297 5.04963
RightHand  -0.127402 6.78791 -1.56317
LeftUpLeg  -5.37301 4.64796 -1.49192
LeftLeg  8.54088 4.39769 0.351657
LeftFoot  -7.08659 -0.0230286 1.77964
LeftToes  8.61288e-010 -5.99147e-011 2.1039e-011
554
root  88.518 39.1311 0.814109 -87.2264 -87.7614 88.8576
RightUpLeg  -0.802243 -10.2398 -7.02005
RightLeg  4.62038 8.27001 1.59803
RightFoot  -9.51728 -0.149111 5.31349
RightToes  -9.31324e-010 0 -3.6325e-017
Spine  5.75033 2.9912 10.0256
Spine1  5.28607 5.2493 -7.95591
HEad  0.0932033 -34.8097 -10.0485
LeftShoulder1  -0.136356 3.85107 -33.0972
LeftArm  3.71517 15.1288 -41.7651
LeftForeArm  24.8368 -21.2216 -4.03111
LeftHand  -0.0423243 6.08432 -2.02393
RightShoulder  -0.925672 -6.00414 30.4369
RightArm  12.2195 3.16041 45.0786
RightForeArm  9.10175 12.1101 5.83963
RightHand  -0.141664 6.87729 -1.70141
LeftUpLeg  -4.98253 4.1399 -1.97353
LeftLeg  8.58473 4.05972 0.479234
LeftFoot  -7.7714 -0.00786641 1.7182
LeftToes  8.61288e-010 -5.99147e-011 2.1039e-011
555
root  88.5333 39.0889 1.0483 -57.2371 -87.3007 58.6621
RightUpLeg  -0.740066 -10.6754 -7.67302
RightLeg  5.54456 7.37268 1.74034
RightFoot  -10.3987 -0.117519 5.70195
RightToes  -9.31324e-010 0 -3.6325e-017
Spine  4.67939 2.92285 9.34736
Spine1  5.97097 4.9725 -7.40151
HEad  0.863191 -36.2118 -11.0011
LeftShoulder1  -0.167995 3.9267 -33.5686
LeftArm  3.03408 15.324 -41.3273
LeftForeArm  23.4476 -19.8624 -4.50284
LeftHand  0.0136931 3.88834 -3.15485
RightShoulder  -0.906242 -5.9775 30.044
RightArm  15.6476 4.19154 46.8393
RightForeArm  9.80507 16.2428 5.23443
RightHand  -0.100433 7.66609 -1.25919
LeftUpLeg  -4.92052 3.65945 -2.53226
LeftLeg  8.80956 3.40746 0.547624
LeftFoot  -8.95903 0.0398691 0.678874
LeftToes  8.61288e-010 -5.99147e-011 2.1039e-011
556
root  88.5133 39.0002 1.23926 -49.3296 -86.9206 50.1686
RightUpLeg  -1.17358 -10.7738 -7.95756
RightLeg  7.95555 6.77906 1.65212
RightFoot  -11.3386 -0.0778257 5.50053
RightToes  -9.31324e-010 0 -3.6325e-017
Spine  4.64297 2.88711 8.94499
Spine1  5.89913 4.98448 -7.8427
HEad  1.80318 -37.4872 -11.4418
LeftShoulder1  -0.0980478 3.75498 -32.9517
LeftArm  1.26283 15.9779 -41.3248
LeftForeArm  23.5442 -18.3356 -4.99701
LeftHand  0.0461703 2.77939 -2.76046
RightShoulder  -0.845549 -5.82083 29.8774
RightArm  18.0392 4.40856 48.2601
RightForeArm  9.53311 20.8884 4.5072
RightHand  -0.0928647 6.93877 -1.22772
LeftUpLeg  -4.4945 3.75196 -2.77938
LeftLeg  9.43287 2.90885 0.461561
LeftFoot  -10.4599 0.062039 0.168223
LeftToes  8.61288e-010 -5.99147e-011 2.1039e-011
557
root  88.5026 38.8779 1.34862 -56.9034 -86.8636 57.0386
RightUpLeg  -2.51017 -9.43306 -7.98793
RightLeg  11.8494 5.57862 1.14956
RightFoot  -11.9829 -0.0552495 4.59725
RightToes  -9.31324e-010 0 -3.6325e-017
Spine  5.82702 3.33724 7.47718
Spine1  4.54534 5.32326 -7.84644
HEad  3.0232 -38.6335 -12.4676
LeftShoulder1  -0.0589335 3.65468 -32.957
LeftArm  -1.94807 16.1672 -40.7134
LeftForeArm  26.4773 -16.489 -5.36686
LeftHand  0.0742572 2.27732 -3.31873
RightShoulder  -0.810238 -5.73023 29.7623
RightArm  17.5805 4.00834 48.815
RightForeArm  10.7093 25.1772 4.77392
RightHand  -0.123693 7.28778 -1.50894
LeftUpLeg  -4.19079 4.87377 -2.76538
LeftLeg  10.7466 1.92282 -0.260493
LeftFoot  -12.0118 0.0685314 -0.384666
LeftToes  8.61288e-010 -5.99147e-011 2.1039e-011
558
root  88.4608 38.7071 1.49579 -67.1778 -86.1495 66.5954
RightUpLeg  -4.57816 -6.34221 -8.98335
RightLeg  17.3853 3.17138 0.849362
RightFoot  -12.7271 -0.0238384 5.05998
RightToes  -9.31324e-010 0 -3.6325e-017
Spine  6.83141 3.26708 6.07995
Spine1  3.61747 5.36086 -8.95891
HEad  3.67883 -39.4737 -13.1108
LeftShoulder1  -0.0824247 3.7156 -32.8044
LeftArm  -2.91206 16.2428 -39.6626
LeftForeArm  27.5477 -15.6393 -5.56018
LeftHand  0.00918826 4.1767 -3.21248
RightShoulder  -0.823656 -5.75921 29.8856
RightArm  17.6408 4.58719 49.8043
RightForeArm  11.439 28.1711 5.46933
RightHand  -0.21329 6.51998 -2.41995
LeftUpLeg  -4.1456 4.71942 -3.79885
LeftLeg  12.6626 2.21582 -0.157167
LeftFoot  -13.3633 0.057934 -1.30586
LeftToes  8.61288e-010 -5.99147e-011 2.1039e-011
559
root  88.4057 38.517 1.62028 -82.0429 -85.8094 80.7917
RightUpLeg  -7.33524 -2.50571 -9.56927
RightLeg  23.6995 0.495858 0.0223326
RightFoot  -12.5063 -0.0180629 7.06069
RightToes  -9.31324e-010 0 -3.6325e-017
Spine  7.21801 3.1762 5.31356
Spine1  3.85339 5.49654 -10.4963
HEad  3.61822 -39.7002 -13.5896
LeftShoulder1  -0.120901 3.81346 -32.8986
LeftArm  -3.91003 15.7043 -38.4787
LeftForeArm  27.6089 -14.5524 -5.80633
LeftHand  -0.0736084 6.52181 -3.31819
RightShoulder  -0.732614 -5.54618 29.2116
RightArm  17.939 5.56699 51.568
RightForeArm  11.7773 29.6865 5.81209
RightHand  -0.138223 6.92412 -1.64311
LeftUpLeg  -4.065 5.67203 -4.24232
LeftLeg  14.4662 2.17144 -0.636473
LeftFoot  -14.251 0.0621575 -0.94398
LeftToes  8.61288e-010 -5.99147e-011 2.1039e-011
560
root  88.3241 38.3641 1.77955 -89.9681 -85.586 88.0575
RightUpLeg  -10.4809 -0.96254 -9.95075
RightLeg  30.4807 -0.537622 -0.551258
RightFoot  -10.6904 -0.116655 8.73134
RightToes  -9.31324e-010 0 -3.6325e-017
Spine  8.3447 2.81432 5.40528
Spine1  2.76923 5.35408 -12.0657
HEad  4.21362 -39.7405 -15.5687
LeftShoulder1  -0.160648 3.91177 -33.2687
LeftArm  -6.67799 14.8762 -36.9291
LeftForeArm  29.7276 -11.9138 -6.02727
LeftHand  -0.00578476 4.73458 -3.3794
RightShoulder  -0.682435 -5.42 28.9197
RightArm  19.0192 5.82091 52.6417
RightForeArm  11.0213 30.5087 6.05457
RightHand  -0.384672 6.659 -4.0468
LeftUpLeg  -3.71723 5.7545 -4.83984
LeftLeg  15.4635 2.66816 -0.413211
LeftFoot  -14.7162 0.0969963 0.306801
LeftToes  8.61288e-010 -5.99147e-011 2.1039e-011
561
root  88.1462 38.2768 1.9598 -99.6746 -85.3125 97.6097
RightUpLeg  -13.7861 -0.231815 -10.2376
RightLeg  35.5539 1.00332 0.544878
RightFoot  -8.9534 -0.224047 7.744
RightToes  -9.31324e-010 0 -3.6325e-017
Spine  8.10909 2.74501 5.35386
Spine1  2.6301 5.39018 -12.8454
HEad  4.67714 -39.7699 -17.7277
LeftShoulder1  -0.134063 3.84216 -33.4886
LeftArm  -8.97439 14.1674 -36.2105
LeftForeArm  32.3321 -9.45484 -5.6892
LeftHand  0.125961 1.19278 -3.77393
RightShoulder  -0.636872 -5.29619 28.8049
RightArm  20.6429 5.88788 52.6706
RightForeArm  10.9582 30.3654 6.02322
RightHand  -0.25717 6.85299 -2.78531
LeftUpLeg  -3.78762 5.67007 -5.479
LeftLeg  16.5278 3.62245 0.0500439
LeftFoot  -15.0593 0.11805 0.857345
LeftToes  8.61288e-010 -5.99147e-011 2.1039e-011
562
root  87.9161 38.2402 2.08444 -115.149 -85.1884 112.583
RightUpLeg  -16.0732 1.20638 -9.7782
RightLeg  37.6287 4.40434 3.3592
RightFoot  -9.01852 -0.231035 8.37835
RightToes  -9.31324e-010 0 -3.6325e-017
Spine  8.63161 2.75242 5.54427
Spine1  2.1722 5.52938 -13.5691
HEad  4.68311 -39.1925 -18.4841
LeftShoulder1  -0.139781 3.85792 -33.3449
LeftArm  -10.6075 13.412 -36.3687
LeftForeArm  33.1166 -7.75015 -4.95282
LeftHand  0.161104 0.726309 -4.28513
RightShoulder  -0.684257 -5.41343 29.1395
RightArm  22.7551 5.71664 52.1627
RightForeArm  9.95491 29.7481 5.92955
RightHand  -0.256931 7.03762 -2.74743
LeftUpLeg  -2.78163 6.0332 -5.36488
LeftLeg  16.6743 4.73633 0.318977
LeftFoot  -15.4917 0.142881 1.38096
LeftToes  8.61288e-010 -5.99147e-011 2.1039e-011
563
root  87.6401 38.2525 2.19085 -124.023 -85.5117 121.536
RightUpLeg  -17.9969 1.90234 -8.70388
RightLeg  36.8657 6.22155 4.73561
RightFoot  -9.24457 -0.240262 9.65164
RightToes  -9.31324e-010 0 -3.6325e-017
Spine  8.20351 2.49813 5.40976
Spine1  2.15462 5.19091 -13.1277
HEad  4.58054 -38.5522 -18.7481
LeftShoulder1  -0.169502 3.93335 -33.3341
LeftArm  -10.165 13.0492 -36.5521
LeftForeArm  31.4199 -7.66193 -5.18216
LeftHand  0.0762409 3.07863 -3.42124
RightShoulder  -0.685598 -5.40567 29.3505
RightArm  24.8876 5.0076 51.4138
RightForeArm  9.06777 28.1419 5.59615
RightHand  -0.175729 7.03221 -1.99452
LeftUpLeg  -2.23375 6.18058 -4.90512
LeftLeg  16.5422 5.28522 0.549369
LeftFoot  -15.62 0.180691 2.36457
LeftToes  8.61288e-010 -5.99147e-011 2.1039e-011
564
root  87.3475 38.3073 2.28454 -126.71 -86.0313 124.83
RightUpLeg  -19.8012 1.51447 -7.64795
RightLeg  33.8416 6.09181 4.15415
RightFoot  -9.17946 -0.252348 10.0339
RightToes  -9.31324e-010 0 -3.6325e-017
Spine  7.44568 1.94094 4.91291
Spine1  1.9078 4.42866 -12.2698
HEad  4.23874 -37.5861 -18.3245
LeftShoulder1  -0.184251 3.97103 -33.3015
LeftArm  -9.21397 12.9165 -36.8222
LeftForeArm  30.1911 -8.25737 -5.7886
LeftHand  0.0315718 5.95378 -2.09112
RightShoulder  -0.706411 -5.4488 29.6336
RightArm  27.1814 4.07284 50.4604
RightForeArm  6.79515 25.7634 5.15492
RightHand  -0.279758 7.35358 -2.90083
LeftUpLeg  -2.64619 6.08603 -4.51681
LeftLeg  16.6227 4.63393 0.498536
LeftFoot  -16.1566 0.147486 1.19112
LeftToes  8.61288e-010 -5.99147e-011 2.1039e-011
